{
	"patcher" : 	{
		"fileversion" : 1,
		"appversion" : 		{
			"major" : 9,
			"minor" : 0,
			"revision" : 7,
			"architecture" : "x64",
			"modernui" : 1
		}
,
		"classnamespace" : "dsp.gen",
		"rect" : [ 549.0, 513.0, 1068.0, 850.0 ],
		"gridsize" : [ 15.0, 15.0 ],
		"boxes" : [ 			{
				"box" : 				{
					"id" : "obj-15",
					"maxclass" : "newobj",
					"numinlets" : 1,
					"numoutlets" : 1,
					"outlettype" : [ "" ],
					"patching_rect" : [ 115.20000171661377, 104.800001561641693, 55.0, 22.0 ],
					"text" : "wrap 0 1"
				}

			}
, 			{
				"box" : 				{
					"id" : "obj-14",
					"maxclass" : "newobj",
					"numinlets" : 1,
					"numoutlets" : 1,
					"outlettype" : [ "" ],
					"patching_rect" : [ 305.0, 61.60000091791153, 25.0, 22.0 ],
					"text" : "!/ 1"
				}

			}
, 			{
				"box" : 				{
					"id" : "obj-11",
					"maxclass" : "newobj",
					"numinlets" : 2,
					"numoutlets" : 1,
					"outlettype" : [ "" ],
					"patching_rect" : [ 294.5, 156.800002336502075, 29.5, 22.0 ],
					"text" : "*"
				}

			}
, 			{
				"box" : 				{
					"id" : "obj-10",
					"maxclass" : "newobj",
					"numinlets" : 2,
					"numoutlets" : 1,
					"outlettype" : [ "" ],
					"patching_rect" : [ 159.600001633167267, 214.40000319480896, 29.5, 22.0 ],
					"text" : "*"
				}

			}
, 			{
				"box" : 				{
					"id" : "obj-9",
					"maxclass" : "newobj",
					"numinlets" : 2,
					"numoutlets" : 1,
					"outlettype" : [ "" ],
					"patching_rect" : [ 50.0, 61.60000091791153, 29.5, 22.0 ],
					"text" : "*"
				}

			}
, 			{
				"box" : 				{
					"id" : "obj-8",
					"maxclass" : "newobj",
					"numinlets" : 1,
					"numoutlets" : 1,
					"outlettype" : [ "" ],
					"patching_rect" : [ 50.0, 104.800001561641693, 32.0, 22.0 ],
					"text" : "floor"
				}

			}
, 			{
				"box" : 				{
					"id" : "obj-7",
					"maxclass" : "newobj",
					"numinlets" : 1,
					"numoutlets" : 0,
					"patching_rect" : [ 447.600005924701691, 275.200004100799561, 89.0, 22.0 ],
					"text" : "out 4 sub-ramp"
				}

			}
, 			{
				"box" : 				{
					"id" : "obj-6",
					"maxclass" : "newobj",
					"numinlets" : 1,
					"numoutlets" : 0,
					"patching_rect" : [ 309.200003862380981, 275.200004100799561, 75.0, 22.0 ],
					"text" : "out 3 phasor"
				}

			}
, 			{
				"box" : 				{
					"id" : "obj-5",
					"maxclass" : "newobj",
					"numinlets" : 1,
					"numoutlets" : 0,
					"patching_rect" : [ 159.600001633167267, 275.200004100799561, 91.0, 22.0 ],
					"text" : "out 2 quantized"
				}

			}
, 			{
				"box" : 				{
					"id" : "obj-1",
					"maxclass" : "newobj",
					"numinlets" : 0,
					"numoutlets" : 1,
					"outlettype" : [ "" ],
					"patching_rect" : [ 50.0, 14.0, 68.0, 22.0 ],
					"text" : "in 1 phasor"
				}

			}
, 			{
				"box" : 				{
					"id" : "obj-2",
					"maxclass" : "newobj",
					"numinlets" : 0,
					"numoutlets" : 1,
					"outlettype" : [ "" ],
					"patching_rect" : [ 305.0, 14.0, 60.0, 22.0 ],
					"text" : "in 2 steps"
				}

			}
, 			{
				"box" : 				{
					"id" : "obj-4",
					"maxclass" : "newobj",
					"numinlets" : 1,
					"numoutlets" : 0,
					"patching_rect" : [ 50.0, 275.200004100799561, 61.0, 22.0 ],
					"text" : "out 1 step"
				}

			}
 ],
		"lines" : [ 			{
				"patchline" : 				{
					"destination" : [ "obj-9", 0 ],
					"source" : [ "obj-1", 0 ]
				}

			}
, 			{
				"patchline" : 				{
					"destination" : [ "obj-5", 0 ],
					"source" : [ "obj-10", 0 ]
				}

			}
, 			{
				"patchline" : 				{
					"destination" : [ "obj-7", 0 ],
					"source" : [ "obj-11", 0 ]
				}

			}
, 			{
				"patchline" : 				{
					"destination" : [ "obj-10", 1 ],
					"order" : 1,
					"source" : [ "obj-14", 0 ]
				}

			}
, 			{
				"patchline" : 				{
					"destination" : [ "obj-11", 1 ],
					"order" : 0,
					"source" : [ "obj-14", 0 ]
				}

			}
, 			{
				"patchline" : 				{
					"destination" : [ "obj-11", 0 ],
					"order" : 1,
					"source" : [ "obj-15", 0 ]
				}

			}
, 			{
				"patchline" : 				{
					"destination" : [ "obj-6", 0 ],
					"order" : 0,
					"source" : [ "obj-15", 0 ]
				}

			}
, 			{
				"patchline" : 				{
					"destination" : [ "obj-14", 0 ],
					"order" : 0,
					"source" : [ "obj-2", 0 ]
				}

			}
, 			{
				"patchline" : 				{
					"destination" : [ "obj-9", 1 ],
					"order" : 1,
					"source" : [ "obj-2", 0 ]
				}

			}
, 			{
				"patchline" : 				{
					"destination" : [ "obj-10", 0 ],
					"order" : 0,
					"source" : [ "obj-8", 0 ]
				}

			}
, 			{
				"patchline" : 				{
					"destination" : [ "obj-4", 0 ],
					"order" : 1,
					"source" : [ "obj-8", 0 ]
				}

			}
, 			{
				"patchline" : 				{
					"destination" : [ "obj-15", 0 ],
					"order" : 0,
					"source" : [ "obj-9", 0 ]
				}

			}
, 			{
				"patchline" : 				{
					"destination" : [ "obj-8", 0 ],
					"order" : 1,
					"source" : [ "obj-9", 0 ]
				}

			}
 ]
	}

}
